<svg xmlns="http://www.w3.org/2000/svg" width="155.123" height="299.258" viewBox="0 0 155.123 299.258">
  <g id="madagascar" transform="translate(-123.101 0.5)">
    <path id="Tracé_164" data-name="Tracé 164" d="M247.246-.5h4.676a43.921,43.921,0,0,1,14.32,19.873q2.025,5.764,3.507,11.69,3.391,21.229,8.475,42.083a15.516,15.516,0,0,1-1.753,4.384,17.831,17.831,0,0,0-13.735,10.813,166.344,166.344,0,0,0-2.922,22.8A345.676,345.676,0,0,0,246.954,157.9q-17.588,57.149-36.238,113.975a37,37,0,0,1-11.4,13.151,85.538,85.538,0,0,1-28.055,13.735H162.5q-30.527-9.184-32.147-40.914-15.453-32.321,2.046-63.709,5.992-10.235,12.859-19.873,1.247-4.479,2.046-9.06-5.286-17.49-9.06-35.362-3.589-24.321,15.489-39.453a89.011,89.011,0,0,1,14.612-8.183,133.235,133.235,0,0,0,36.238-18.7,62.24,62.24,0,0,0,13.151-15.489q3.929-8.581,8.183-16.95l15.2-17.535A130.014,130.014,0,0,0,247.246-.5Z" fill="#fff" fill-rule="evenodd" opacity="0.99"/>
  </g>
</svg>
